<svg width="145" height="19" viewBox="0 0 145 19" fill="none" xmlns="http://www.w3.org/2000/svg">
<path d="M7.00003 9.68801L6.69203 10.948H10.052L9.74403 9.68801C9.52003 8.81068 9.29603 7.85868 9.07203 6.83201C8.84803 5.80534 8.62403 4.83468 8.40003 3.92001H8.28803C8.10136 4.83468 7.89603 5.80534 7.67203 6.83201C7.44803 7.85868 7.22403 8.81068 7.00003 9.68801ZM2.92771e-05 18.536L5.54403 0.33601H11.368L16.912 18.536H11.816L10.92 14.672H5.82403L4.92803 18.536H2.92771e-05ZM18.6476 18.536V0.33601H30.4076V4.36801H23.4636V7.22401H29.3996V11.256H23.4636V14.504H30.6876V18.536H18.6476ZM34.2062 18.536V0.33601H41.0942C42.4009 0.33601 43.6049 0.513343 44.7062 0.86801C45.8075 1.20401 46.6942 1.80134 47.3662 2.66001C48.0382 3.51868 48.3742 4.70401 48.3742 6.21601C48.3742 7.52268 48.1035 8.60534 47.5622 9.46401C47.0209 10.3227 46.3115 10.9947 45.4342 11.48L49.3822 18.536H44.0062L40.8702 12.432H39.0222V18.536H34.2062ZM39.0222 8.62401H40.7582C42.6995 8.62401 43.6702 7.82134 43.6702 6.21601C43.6702 5.43201 43.4182 4.89068 42.9142 4.59201C42.4289 4.29334 41.7102 4.14401 40.7582 4.14401H39.0222V8.62401ZM59.5149 18.872C57.8349 18.872 56.3602 18.4987 55.0909 17.752C53.8216 16.9867 52.8322 15.8947 52.1229 14.476C51.4136 13.0573 51.0589 11.3493 51.0589 9.35201C51.0589 7.35468 51.4136 5.66534 52.1229 4.28401C52.8322 2.88401 53.8216 1.82001 55.0909 1.09201C56.3602 0.364009 57.8349 9.05991e-06 59.5149 9.05991e-06C61.1949 9.05991e-06 62.6696 0.364009 63.9389 1.09201C65.2082 1.82001 66.1976 2.88401 66.9069 4.28401C67.6162 5.66534 67.9709 7.35468 67.9709 9.35201C67.9709 11.3493 67.6162 13.0573 66.9069 14.476C66.1976 15.8947 65.2082 16.9867 63.9389 17.752C62.6696 18.4987 61.1949 18.872 59.5149 18.872ZM59.5149 14.728C60.6162 14.728 61.4749 14.2427 62.0909 13.272C62.7256 12.3013 63.0429 10.9947 63.0429 9.35201C63.0429 7.69068 62.7256 6.41201 62.0909 5.51601C61.4749 4.60134 60.6162 4.14401 59.5149 4.14401C58.4322 4.14401 57.5736 4.60134 56.9389 5.51601C56.3042 6.41201 55.9869 7.69068 55.9869 9.35201C55.9869 10.9947 56.3042 12.3013 56.9389 13.272C57.5736 14.2427 58.4322 14.728 59.5149 14.728ZM141.807 18.872C141.004 18.872 140.332 18.592 139.791 18.032C139.268 17.4533 139.007 16.7627 139.007 15.96C139.007 15.1387 139.268 14.448 139.791 13.888C140.332 13.328 141.004 13.048 141.807 13.048C142.628 13.048 143.3 13.328 143.823 13.888C144.346 14.448 144.607 15.1387 144.607 15.96C144.607 16.7627 144.346 17.4533 143.823 18.032C143.3 18.592 142.628 18.872 141.807 18.872Z" fill="#6D3FFF"/>
<path d="M71.2296 18.536V0.33601H76.6056C78.4536 0.33601 80.0776 0.64401 81.4776 1.26001C82.8963 1.85734 83.9976 2.81868 84.7816 4.14401C85.5656 5.46934 85.9576 7.20534 85.9576 9.35201C85.9576 11.4987 85.5656 13.2533 84.7816 14.616C83.9976 15.96 82.9243 16.9493 81.5616 17.584C80.199 18.2187 78.6403 18.536 76.8856 18.536H71.2296ZM76.0456 14.672H76.3256C77.203 14.672 77.9963 14.5227 78.7056 14.224C79.415 13.9253 79.975 13.3933 80.3856 12.628C80.815 11.8627 81.0296 10.7707 81.0296 9.35201C81.0296 7.93334 80.815 6.86001 80.3856 6.13201C79.975 5.38534 79.415 4.88134 78.7056 4.62001C77.9963 4.34001 77.203 4.20001 76.3256 4.20001H76.0456V14.672ZM89.1945 18.536V0.33601H96.0825C97.3891 0.33601 98.5931 0.513343 99.6945 0.86801C100.796 1.20401 101.682 1.80134 102.354 2.66001C103.026 3.51868 103.362 4.70401 103.362 6.21601C103.362 7.52268 103.092 8.60534 102.55 9.46401C102.009 10.3227 101.3 10.9947 100.422 11.48L104.37 18.536H98.9945L95.8585 12.432H94.0105V18.536H89.1945ZM94.0105 8.62401H95.7465C97.6878 8.62401 98.6585 7.82134 98.6585 6.21601C98.6585 5.43201 98.4065 4.89068 97.9025 4.59201C97.4171 4.29334 96.6985 4.14401 95.7465 4.14401H94.0105V8.62401ZM114.503 18.872C112.823 18.872 111.349 18.4987 110.079 17.752C108.81 16.9867 107.821 15.8947 107.111 14.476C106.402 13.0573 106.047 11.3493 106.047 9.35201C106.047 7.35468 106.402 5.66534 107.111 4.28401C107.821 2.88401 108.81 1.82001 110.079 1.09201C111.349 0.364009 112.823 9.05991e-06 114.503 9.05991e-06C116.183 9.05991e-06 117.658 0.364009 118.927 1.09201C120.197 1.82001 121.186 2.88401 121.895 4.28401C122.605 5.66534 122.959 7.35468 122.959 9.35201C122.959 11.3493 122.605 13.0573 121.895 14.476C121.186 15.8947 120.197 16.9867 118.927 17.752C117.658 18.4987 116.183 18.872 114.503 18.872ZM114.503 14.728C115.605 14.728 116.463 14.2427 117.079 13.272C117.714 12.3013 118.031 10.9947 118.031 9.35201C118.031 7.69068 117.714 6.41201 117.079 5.51601C116.463 4.60134 115.605 4.14401 114.503 4.14401C113.421 4.14401 112.562 4.60134 111.927 5.51601C111.293 6.41201 110.975 7.69068 110.975 9.35201C110.975 10.9947 111.293 12.3013 111.927 13.272C112.562 14.2427 113.421 14.728 114.503 14.728ZM126.218 18.536V0.33601H132.882C134.207 0.33601 135.43 0.522676 136.55 0.896009C137.67 1.26934 138.566 1.89468 139.238 2.77201C139.929 3.64934 140.274 4.85334 140.274 6.38401C140.274 7.85868 139.929 9.07201 139.238 10.024C138.566 10.9573 137.67 11.648 136.55 12.096C135.449 12.544 134.263 12.768 132.994 12.768H131.034V18.536H126.218ZM131.034 8.96001H132.77C133.722 8.96001 134.422 8.73601 134.87 8.28801C135.337 7.82134 135.57 7.18668 135.57 6.38401C135.57 5.56268 135.318 4.98401 134.814 4.64801C134.31 4.31201 133.591 4.14401 132.658 4.14401H131.034V8.96001Z" fill="black"/>
</svg>
