<svg width="204" height="140" viewBox="0 0 204 140" fill="none" xmlns="http://www.w3.org/2000/svg">
<path d="M126.974 139.792C132.199 139.792 137.48 138.565 141.376 136.157L196.772 101.901C204.059 97.3934 203.848 90.3853 196.301 86.327L87.7003 27.9309C84.1868 26.0415 79.6787 25.1119 75.1283 25.1119C69.9032 25.1119 64.6226 26.3379 60.7271 28.7467L5.33084 63.0038C-1.95679 67.5109 -1.74507 74.519 5.80132 78.5764L114.402 136.972C117.916 138.862 122.424 139.792 126.974 139.792Z" fill="#D9D6D9"/>
<path d="M141.364 125.074L196.761 90.8172C200.091 88.7574 201.836 86.1764 202.051 83.5935L202.057 83.5926L203.045 76.0123L200.385 78.536C199.423 77.324 198.069 76.2005 196.29 75.2445L87.689 16.8485C80.1417 12.7902 68.0035 13.1572 60.7159 17.6643L5.31955 51.9213C4.34473 52.5235 3.51483 53.1737 2.80818 53.8531L1.40901 49.4146L0.0709839 58.7055C0.0606384 58.7714 0.0502777 58.8373 0.0418091 58.9031L0.0295715 58.9887L0.0380554 58.9812C-0.30069 62.1061 1.61882 65.2507 5.79002 67.494L114.391 125.89C121.938 129.948 134.076 129.581 141.364 125.074Z" fill="#A6AFB2"/>
<path d="M112.501 112.126L187.722 65.6093L91.6704 13.9617L16.7749 60.2769L112.501 112.126ZM148.948 103.204L175.781 86.6102L172.351 84.766L145.517 101.36L148.948 103.204ZM44.6589 27.5941L37.7015 31.8961L43.8525 35.2036L50.8098 30.9006L44.6589 27.5941ZM6.51105 43.1254L61.9083 8.86838C69.1959 4.36125 81.3331 3.99333 88.8805 8.05163L197.482 66.4486C205.029 70.506 205.241 77.5141 197.952 82.0212L142.556 116.278C135.268 120.784 123.13 121.152 115.584 117.094L6.98152 58.698C-0.564865 54.6397 -0.776566 47.6316 6.51105 43.1254Z" fill="#E1E7EA"/>
<path d="M93.62 12.7553L189.628 64.4302L112.501 112.126L16.7749 60.2769L93.62 12.7553Z" fill="#EDD5B9"/>
<path d="M153.129 39.7784C156.799 39.7784 159.773 36.804 159.773 33.1353C159.773 29.4656 156.799 26.4922 153.129 26.4922C149.461 26.4922 146.486 29.4656 146.486 33.1353C146.486 36.804 149.461 39.7784 153.129 39.7784ZM142.425 28.6724C142.72 27.978 143.079 27.3174 143.497 26.6992C144.332 25.4638 145.399 24.3967 146.634 23.5612C148.489 22.3088 150.723 21.5776 153.129 21.5776C155.535 21.5776 157.771 22.3088 159.625 23.5612C160.861 24.3967 161.927 25.4638 162.763 26.6992C163.181 27.3174 163.54 27.978 163.834 28.6724C164.422 30.0622 164.747 31.5903 164.747 33.1946C164.747 33.5935 164.725 33.9878 164.684 34.3764C164.669 34.527 164.639 34.6728 164.618 34.8215C164.585 35.0548 164.554 35.2891 164.507 35.5187C164.471 35.6966 164.421 35.8697 164.376 36.0447C164.327 36.2385 164.281 36.4324 164.222 36.6224C164.167 36.8012 164.1 36.9753 164.036 37.1503C163.986 37.2858 163.946 37.4251 163.892 37.5577H163.9C163.885 37.5907 163.868 37.6292 163.853 37.6631C163.82 37.7393 163.795 37.7967 163.794 37.7986C163.789 37.8127 163.782 37.8268 163.776 37.84H163.781C162.536 40.8463 161.047 44.071 159.262 47.4414C157.238 51.2588 155.151 54.6641 153.129 57.6601C151.108 54.6641 149.021 51.2588 146.998 47.4414C145.212 44.071 143.724 40.8463 142.479 37.84H142.484C142.478 37.8268 142.471 37.8127 142.466 37.7986C142.465 37.7967 142.439 37.7393 142.406 37.6631C142.391 37.6292 142.374 37.5907 142.36 37.5577H142.368C142.313 37.4251 142.273 37.2858 142.224 37.1503C142.16 36.9753 142.093 36.8012 142.038 36.6224C141.978 36.4324 141.933 36.2385 141.883 36.0447C141.839 35.8697 141.788 35.6966 141.753 35.5187C141.705 35.2891 141.674 35.0548 141.641 34.8215C141.62 34.6728 141.591 34.527 141.575 34.3764C141.535 33.9878 141.513 33.5935 141.513 33.1946C141.513 31.5903 141.838 30.0622 142.425 28.6724Z" fill="#6D3FFF"/>
<path d="M60.1148 18.2007C63.7835 18.2007 66.7579 15.2264 66.7579 11.5576C66.7579 7.88794 63.7835 4.9136 60.1148 4.9136C56.446 4.9136 53.4717 7.88794 53.4717 11.5576C53.4717 15.2264 56.446 18.2007 60.1148 18.2007ZM49.4106 7.09472C49.7041 6.39936 50.0645 5.73977 50.4814 5.12156C51.3169 3.88516 52.384 2.81907 53.6194 1.98351C55.474 0.731113 57.7088 -7.62939e-06 60.1148 -7.62939e-06C62.5208 -7.62939e-06 64.7565 0.731113 66.6101 1.98351C67.8465 2.81907 68.9126 3.88516 69.7482 5.12156C70.165 5.73977 70.5254 6.39936 70.819 7.09472C71.4071 8.4845 71.7317 10.0126 71.7317 11.6169C71.7317 12.0159 71.7101 12.4092 71.6696 12.7987C71.6545 12.9483 71.6244 13.0951 71.6028 13.2438C71.5698 13.4772 71.5397 13.7114 71.4927 13.9401C71.456 14.1189 71.4061 14.292 71.361 14.467C71.312 14.6609 71.2659 14.8547 71.2066 15.0438C71.1511 15.2236 71.0843 15.3967 71.0203 15.5726C70.9714 15.7081 70.9309 15.8474 70.8773 15.9801H70.8848C70.8698 16.013 70.8528 16.0516 70.8387 16.0855C70.8049 16.1617 70.7804 16.2191 70.7794 16.221C70.7738 16.2341 70.7672 16.2482 70.7606 16.2624H70.7653C69.5205 19.2677 68.0319 22.4933 66.246 25.8628C64.2229 29.6812 62.1359 33.0865 60.1148 36.0815C58.0936 33.0865 56.0066 29.6812 53.9836 25.8628C52.1977 22.4933 50.7091 19.2677 49.4642 16.2624H49.4689C49.4633 16.2482 49.4567 16.2341 49.4501 16.221C49.4501 16.2191 49.4247 16.1617 49.3918 16.0855C49.3767 16.0516 49.3598 16.013 49.3447 15.9801H49.3522C49.2986 15.8474 49.2582 15.7081 49.2092 15.5726C49.1452 15.3967 49.0784 15.2236 49.0229 15.0438C48.9636 14.8547 48.9175 14.6609 48.8686 14.467C48.8244 14.292 48.7736 14.1189 48.7369 13.9401C48.6898 13.7114 48.6597 13.4772 48.6268 13.2438C48.6051 13.0951 48.575 12.9483 48.56 12.7987C48.5205 12.4092 48.4979 12.0159 48.4979 11.6169C48.4979 10.0126 48.8225 8.4845 49.4106 7.09472Z" fill="#6D3FFF"/>
<path d="M131.377 36.7185C134.601 38.4997 135.666 41.1851 133.745 42.6859C131.823 44.1858 127.983 44.3185 125.211 42.9814C122.439 41.6434 117.578 42.0837 114.409 43.9609L111.796 45.5078C108.627 47.3841 104.193 47.9778 101.943 46.827C99.6919 45.6753 100.368 43.0802 103.447 41.0581L114.202 33.9944C117.28 31.9723 122.436 31.7757 125.66 33.5578L131.377 36.7185Z" fill="#84A7E8"/>
<path d="M140.231 68.131C142.173 65.0014 141.115 60.9986 137.882 59.2353L126.9 53.248C123.667 51.4847 118.394 51.5167 115.183 53.3205L103.005 60.1565C99.7934 61.9593 99.7991 64.8998 103.017 66.6904L125.493 79.1965C128.712 80.9871 132.934 79.8919 134.876 76.7623L140.231 68.131Z" fill="#AADA77"/>
<path d="M99.7126 56.2835L88.9341 50.6002L66.7184 63.3999L77.6813 68.736L99.7126 56.2835Z" fill="#B4ADA5"/>
<path d="M117.391 109.102L119.543 107.771L98.8845 95.7524L115.073 85.3333L84.6565 67.7696L82.9844 69.3814L110.787 85.4358L94.6098 95.8483L117.391 109.102Z" fill="white"/>
<path d="M186.869 64.5507L157.294 82.4521L153.129 67.3406L170.114 55.6107L186.869 64.5507Z" fill="#B4ADA5"/>
<path d="M109.21 23.5357L95.7241 31.9055L80.5645 23.8143L93.8281 15.3213L109.21 23.5357Z" fill="#AADA77"/>
<path d="M73.9242 91.2312L95.6506 75.9493L94.3662 74.122L71.7318 90.0437L73.9242 91.2312Z" fill="white"/>
<path d="M30.5671 59.6238L32.2081 58.4561C35.2097 56.3221 40.3463 55.9513 43.6237 57.6328L77.2568 74.8869C80.5341 76.5684 80.8051 79.7525 77.86 81.9638L75.7965 83.5144C72.8504 85.7257 67.7787 86.1237 64.5249 84.3989L31.0263 66.6405C27.7716 64.9157 27.5655 61.7579 30.5671 59.6238Z" fill="#AADA77"/>
<path d="M107.404 85.7511L95.1274 78.4315L75.8248 91.6885L111.728 111.355L115.217 108.984L92.4353 95.8728L107.404 85.7511Z" fill="#B4ADA5"/>
<path d="M77.9138 70.1116L102.223 56.2562L95.4436 52.563L71.2557 66.6593L77.9138 70.1116ZM38.4289 49.6348L68.8855 65.4295L93.0734 51.272L81.1733 44.7889L43.9937 43.4443L47.4046 41.3347L83.1389 42.6276L93.3943 36.0673L72.893 25.5729L75.1126 24.2001L83.5435 28.5162L90.1583 24.4824L92.3752 25.7432L85.8733 29.7084L95.5725 34.6737L113.289 23.3419L115.431 24.4946L84.8223 44.2347L104.503 54.9577L120.91 45.6057L153.044 62.6942L167.945 52.7597L170.114 53.997L153.173 65.2912L150.525 63.8826L155.336 85.6372L153.324 86.8812L147.933 62.505L120.947 48.1547L92.5314 64.3493L109.319 74.232L107.207 75.5776L90.2976 65.6224L78.007 72.6268L38.5588 52.2299L22.1252 63.174L19.9045 61.9715L38.4289 49.6348Z" fill="white"/>
<path d="M97.5928 77.8688C101.262 77.8688 104.236 74.8944 104.236 71.2257C104.236 67.556 101.262 64.5826 97.5928 64.5826C93.9231 64.5826 90.9488 67.556 90.9488 71.2257C90.9488 74.8944 93.9231 77.8688 97.5928 77.8688ZM86.8886 66.7628C87.1822 66.0684 87.5426 65.4078 87.9594 64.7896C88.795 63.5542 89.8611 62.4871 91.0975 61.6516C92.9521 60.3992 95.1868 59.6681 97.5928 59.6681C99.9988 59.6681 102.234 60.3992 104.088 61.6516C105.324 62.4871 106.391 63.5542 107.226 64.7896C107.643 65.4078 108.003 66.0684 108.297 66.7628C108.885 68.1526 109.21 69.6807 109.21 71.285C109.21 71.6839 109.187 72.0782 109.148 72.4668C109.133 72.6173 109.102 72.7632 109.081 72.9119C109.048 73.1452 109.018 73.3795 108.971 73.6091C108.934 73.7869 108.884 73.9601 108.839 74.1351C108.79 74.3289 108.744 74.5228 108.685 74.7128C108.629 74.8916 108.562 75.0657 108.498 75.2407C108.449 75.3762 108.409 75.5155 108.355 75.6481H108.363C108.348 75.6811 108.331 75.7196 108.316 75.7535C108.283 75.8297 108.257 75.8871 108.257 75.889C108.251 75.9031 108.245 75.9172 108.239 75.9304H108.243C106.998 78.9358 105.51 82.1614 103.724 85.5309C101.701 89.3492 99.614 92.7545 97.5928 95.7505C95.5717 92.7545 93.4846 89.3492 91.4616 85.5309C89.6757 82.1614 88.1871 78.9358 86.9422 75.9304H86.9469C86.9404 75.9172 86.9338 75.9031 86.9281 75.889C86.9272 75.8871 86.9027 75.8297 86.8688 75.7535C86.8547 75.7196 86.8378 75.6811 86.8227 75.6481H86.8303C86.7766 75.5155 86.7362 75.3762 86.6873 75.2407C86.6233 75.0657 86.5565 74.8916 86.5009 74.7128C86.4417 74.5228 86.3955 74.3289 86.3466 74.1351C86.3015 73.9601 86.2516 73.7869 86.2149 73.6091C86.1678 73.3795 86.1377 73.1452 86.1039 72.9119C86.0832 72.7632 86.0531 72.6173 86.038 72.4668C85.9975 72.0782 85.9759 71.6839 85.9759 71.285C85.9759 69.6807 86.3005 68.1526 86.8886 66.7628Z" fill="#6D3FFF"/>
</svg>
