<svg width="120" height="130" viewBox="0 0 120 130" fill="none" xmlns="http://www.w3.org/2000/svg">
<path d="M0 39.6522V93.381L62.8027 129.642V75.9108L0 39.6522Z" fill="#B28B62"/>
<path d="M62.803 75.9108V129.642L119.097 97.139V43.4103L62.803 75.9108Z" fill="#CDAC89"/>
<path d="M56.9875 6.75038L0 39.652L62.8027 75.9106L119.096 43.4102L56.9875 6.75038Z" fill="#DAB996"/>
<path d="M18.2319 99.8882L16.9198 99.1288V91.3527L18.2319 92.1121V99.8882ZM16.3876 98.8218L16.2361 98.7337V90.9576L16.3876 91.0456V98.8218ZM15.8554 98.5147L15.4931 98.3059V90.5298L15.8554 90.7386V98.5147ZM15.2209 98.1483L14.8586 97.9396V90.1634L15.2209 90.3722V98.1483ZM14.5618 97.7676L13.522 97.1679V89.3917L14.5618 89.9915V97.7676ZM13.2681 97.0205L13.1146 96.9325V89.1563L13.2681 89.2444V97.0205ZM12.8403 96.7728L12.4781 96.564V88.79L12.8403 88.9987V96.7728ZM12.2713 96.4453L10.9592 95.688V87.9119L12.2713 88.6712V96.4453ZM10.7812 95.5856L10.4209 95.3768V87.6007L10.7812 87.8095V95.5856ZM10.2428 95.2745L9.36062 94.7648V86.9887L10.2428 87.4984V95.2745ZM9.08226 94.6052L8.93078 94.5171V86.741L9.08226 86.829V94.6052ZM8.65445 94.3575L8.2942 94.1487V86.3726L8.65445 86.5814V94.3575ZM8.06493 94.0177L7.70468 93.8089V86.0328L8.06493 86.2416V94.0177ZM7.51227 93.6984L7.15202 93.4896V85.7135L7.51227 85.9223V93.6984ZM6.86958 93.3259L5.98733 92.8182V85.0421L6.86958 85.5518V93.3259ZM5.06831 92.286L3.75623 91.5287V83.7525L5.06831 84.512V92.286ZM3.24658 82.9133V91.7805L18.7415 100.727V91.8603L3.24658 82.9133Z" fill="white"/>
<path d="M3.7561 91.5288L5.06819 92.2862V84.5121L3.7561 83.7527V91.5288Z" fill="#666666"/>
<path d="M10.9592 95.6878L12.2713 96.4452V88.6711L10.9592 87.9117V95.6878Z" fill="#666666"/>
<path d="M16.9197 99.1287L18.2317 99.8881V92.1119L16.9197 91.3525V99.1287Z" fill="#666666"/>
<path d="M5.98755 92.8182L6.86979 93.3258V85.5517L5.98755 85.042V92.8182Z" fill="#666666"/>
<path d="M9.3606 94.7645L10.2428 95.2742V87.498L9.3606 86.9884V94.7645Z" fill="#666666"/>
<path d="M13.522 97.1681L14.5618 97.7678V89.9917L13.522 89.3919V97.1681Z" fill="#666666"/>
<path d="M7.1521 93.4894L7.51234 93.6981V85.922L7.1521 85.7132V93.4894Z" fill="#666666"/>
<path d="M7.70435 93.8089L8.06459 94.0176V86.2415L7.70435 86.0327V93.8089Z" fill="#666666"/>
<path d="M10.4209 95.3768L10.7811 95.5856V87.8095L10.4209 87.6007V95.3768Z" fill="#666666"/>
<path d="M8.29419 94.1486L8.65443 94.3574V86.5812L8.29419 86.3724V94.1486Z" fill="#666666"/>
<path d="M14.8582 97.9394L15.2205 98.1482V90.3721L14.8582 90.1633V97.9394Z" fill="#666666"/>
<path d="M15.4932 98.3058L15.8555 98.5146V90.7384L15.4932 90.5297V98.3058Z" fill="#666666"/>
<path d="M8.93091 94.5169L9.08239 94.605V86.8288L8.93091 86.7408V94.5169Z" fill="#666666"/>
<path d="M16.2356 98.7337L16.3871 98.8218V91.0456L16.2356 90.9576V98.7337Z" fill="#666666"/>
<path d="M13.1147 96.9325L13.2683 97.0206V89.2444L13.1147 89.1564V96.9325Z" fill="#666666"/>
<path d="M12.478 96.5639L12.8403 96.7727V88.9986L12.478 88.7898V96.5639Z" fill="#666666"/>
<path d="M73.5312 50.8959H73.518C73.3672 50.8437 73.2054 50.8134 73.0304 50.8134C72.9936 50.8134 72.9556 50.815 72.9171 50.8178C72.9589 50.8145 72.999 50.8134 73.0392 50.8134C73.2159 50.8134 73.3793 50.8426 73.5312 50.8959ZM72.4867 50.8959H72.4702C72.6056 50.8591 72.7454 50.8332 72.8895 50.82C72.7509 50.8332 72.6177 50.8607 72.4867 50.8959Z" fill="#53393F"/>
<path d="M72.8896 50.82C72.8992 50.8189 72.9083 50.8183 72.9178 50.8178C72.9083 50.8183 72.8987 50.8189 72.8896 50.82Z" fill="#A5B2B8"/>
<path d="M44.038 8.70924C36.4385 3.25307 26.6614 2.25649 17.2772 1.64732C16.531 1.59889 15.9351 2.25429 16.0451 2.99444C17.2244 10.8972 19.5279 19.0234 25.415 24.3437C29.2373 27.7968 34.2456 29.7162 39.3182 30.6143C43.4404 31.344 47.845 31.6411 52.0294 31.4237C55.8837 31.2229 55.1331 28.4406 54.5112 25.2571C53.2324 18.7053 49.4766 12.6141 44.038 8.70924Z" fill="#6FA052"/>
<path d="M64.3401 27.8623C70.9634 28.3465 77.3617 24.2837 80.9739 18.7109C84.3554 13.4941 85.5963 7.16185 85.7185 0.925917C85.7306 0.298582 85.1203 -0.150457 84.5255 0.0470982C79.3197 1.78218 73.7199 4.05104 69.7578 7.70995C64.4238 12.6367 62.4873 20.8411 64.3401 27.8623Z" fill="#6FA052"/>
<path d="M75.8622 15.5412C72.3877 19.3151 68.9406 23.3884 66.335 27.865V27.87C65.7792 28.8192 65.2713 29.7971 64.7969 30.7893C64.5306 31.3495 64.2835 31.9146 64.0513 32.4891C63.3062 34.326 62.7267 36.2295 62.3701 38.2045C62.1049 39.6143 61.9624 41.0627 61.948 42.5485C62.2138 43.7636 62.4136 44.9979 62.5226 46.2465C62.385 46.2509 62.2474 46.2509 62.1098 46.2509C62.0333 46.2558 61.953 46.2558 61.8771 46.2558H61.8628C61.3785 46.2608 60.8942 46.2608 60.4001 46.2608C59.9874 46.2608 59.579 46.2558 59.1757 46.2558H58.6678C58.364 43.4692 57.6189 40.7964 56.5128 38.2854C55.6153 36.2581 54.485 34.3403 53.1659 32.5458C52.8853 32.1568 52.5914 31.7814 52.292 31.4067L52.2876 31.4018C52.1495 31.2405 52.0218 31.0738 51.8837 30.9125C48.993 27.4666 45.366 24.5368 41.3494 22.3015C39.2044 21.1002 41.1266 17.8106 43.2722 19.002C47.735 21.4893 51.7891 24.8032 55.0171 28.7196C55.5679 29.3888 56.0995 30.0772 56.6025 30.7893C56.997 31.3401 57.3762 31.9047 57.7377 32.4792C58.2594 33.3052 58.7481 34.1554 59.1944 35.0188C59.4271 34.1554 59.6979 33.3052 60.0016 32.4699C60.2108 31.891 60.4336 31.3165 60.6758 30.7513C61.5353 28.6959 62.5891 26.716 63.7756 24.7982L63.7805 24.7933C66.434 20.5021 69.7617 16.5427 73.1658 12.8447C74.837 11.0359 77.5241 13.7373 75.8622 15.5412Z" fill="#59893A"/>
</svg>
