<svg width="35" height="41" viewBox="0 0 35 41" fill="none" xmlns="http://www.w3.org/2000/svg">
<path d="M0.00817871 16.2258V26.4791L11.9931 33.3989V23.1452L0.00817871 16.2258Z" fill="#B28B62"/>
<path d="M11.9932 23.1452V33.3989L22.7359 27.1963V16.9429L11.9932 23.1452Z" fill="#CDAC89"/>
<path d="M10.8834 9.94694L0.00817871 16.2257L11.9931 23.1451L22.7359 16.9429L10.8834 9.94694Z" fill="#DAB996"/>
<path d="M3.48739 27.7209L3.23701 27.576V26.092L3.48739 26.2369V27.7209ZM3.13545 27.5174L3.10654 27.5006V26.0166L3.13545 26.0334V27.5174ZM3.03389 27.4588L2.96474 27.4189V25.935L3.03389 25.9748V27.4588ZM2.9128 27.3889L2.84365 27.349V25.8651L2.9128 25.9049V27.3889ZM2.78701 27.3162L2.58858 27.2018V25.7178L2.78701 25.8323V27.3162ZM2.54015 27.1736L2.51085 27.1568V25.6729L2.54015 25.6897V27.1736ZM2.45851 27.1264L2.38937 27.0865V25.603L2.45851 25.6428V27.1264ZM2.34991 27.0639L2.09953 26.9193V25.4354L2.34991 25.5803V27.0639ZM2.06555 26.8998L1.9968 26.86V25.376L2.06555 25.4159V26.8998ZM1.96281 26.8404L1.79446 26.7432V25.2592L1.96281 25.3565V26.8404ZM1.74133 26.7127L1.71243 26.6959V25.212L1.74133 25.2288V26.7127ZM1.65969 26.6654L1.59095 26.6256V25.1416L1.65969 25.1815V26.6654ZM1.54719 26.6006L1.47845 26.5608V25.0768L1.54719 25.1166V26.6006ZM1.44173 26.5397L1.37298 26.4998V25.0159L1.44173 25.0557V26.5397ZM1.31908 26.4686L1.15072 26.3717V24.8877L1.31908 24.985V26.4686ZM0.975335 26.2701L0.724943 26.1256V24.6417L0.975335 24.7866V26.2701ZM0.627686 24.4815V26.1737L3.58466 27.881V26.1889L0.627686 24.4815Z" fill="white"/>
<path d="M0.724976 26.1256L0.975367 26.2701V24.7866L0.724976 24.6417V26.1256Z" fill="#666666"/>
<path d="M2.09961 26.9193L2.34999 27.0638V25.5803L2.09961 25.4354V26.9193Z" fill="#666666"/>
<path d="M3.23706 27.5759L3.48744 27.7209V26.2369L3.23706 26.092V27.5759Z" fill="#666666"/>
<path d="M1.15076 26.3717L1.31912 26.4686V24.985L1.15076 24.8877V26.3717Z" fill="#666666"/>
<path d="M1.79443 26.7431L1.96279 26.8404V25.3564L1.79443 25.2591V26.7431Z" fill="#666666"/>
<path d="M2.58862 27.2018L2.78705 27.3163V25.8323L2.58862 25.7178V27.2018Z" fill="#666666"/>
<path d="M1.37305 26.4997L1.44179 26.5396V25.0556L1.37305 25.0158V26.4997Z" fill="#666666"/>
<path d="M1.47839 26.5607L1.54714 26.6006V25.1166L1.47839 25.0768V26.5607Z" fill="#666666"/>
<path d="M1.99683 26.86L2.06557 26.8998V25.4159L1.99683 25.376V26.86Z" fill="#666666"/>
<path d="M1.59094 26.6255L1.65969 26.6654V25.1814L1.59094 25.1416V26.6255Z" fill="#666666"/>
<path d="M2.84363 27.349L2.91277 27.3888V25.9048L2.84363 25.865V27.349Z" fill="#666666"/>
<path d="M2.96484 27.4189L3.03399 27.4588V25.9748L2.96484 25.935V27.4189Z" fill="#666666"/>
<path d="M1.71252 26.6958L1.74143 26.7126V25.2287L1.71252 25.2119V26.6958Z" fill="#666666"/>
<path d="M3.10645 27.5006L3.13535 27.5174V26.0334L3.10645 26.0166V27.5006Z" fill="#666666"/>
<path d="M2.51099 27.1568L2.54028 27.1736V25.6897L2.51099 25.6729V27.1568Z" fill="#666666"/>
<path d="M2.3894 27.0865L2.45854 27.1263V25.6427L2.3894 25.6029V27.0865Z" fill="#666666"/>
<path d="M0 6.27877V16.5321L11.9849 23.4519V13.1982L0 6.27877Z" fill="#B28B62"/>
<path d="M11.985 13.1982V23.4519L22.7277 17.2493V6.99596L11.985 13.1982Z" fill="#CDAC89"/>
<path d="M10.8752 -1.90735e-05L0 6.27876L11.9849 13.1982L22.7277 6.99594L10.8752 -1.90735e-05Z" fill="#DAB996"/>
<path d="M3.47921 17.7739L3.22883 17.629V16.1451L3.47921 16.29V17.7739ZM3.12727 17.5704L3.09836 17.5536V16.0697L3.12727 16.0865V17.5704ZM3.02571 17.5118L2.95657 17.472V15.988L3.02571 16.0279V17.5118ZM2.90462 17.4419L2.83547 17.4021V15.9181L2.90462 15.9579V17.4419ZM2.77883 17.3693L2.58041 17.2548V15.7708L2.77883 15.8853V17.3693ZM2.53197 17.2267L2.50267 17.2099V15.7259L2.53197 15.7427V17.2267ZM2.45033 17.1794L2.38119 17.1396V15.656L2.45033 15.6958V17.1794ZM2.34173 17.1169L2.09135 16.9724V15.4884L2.34173 15.6333V17.1169ZM2.05737 16.9529L1.98862 16.913V15.4291L2.05737 15.4689V16.9529ZM1.95463 16.8935L1.78628 16.7962V15.3123L1.95463 15.4095V16.8935ZM1.73316 16.7657L1.70425 16.7489V15.265L1.73316 15.2818V16.7657ZM1.65151 16.7185L1.58277 16.6786V15.1947L1.65151 15.2345V16.7185ZM1.53901 16.6536L1.47027 16.6138V15.1298L1.53901 15.1697V16.6536ZM1.43355 16.5927L1.3648 16.5529V15.0689L1.43355 15.1087V16.5927ZM1.3109 16.5216L1.14254 16.4247V14.9408L1.3109 15.038V16.5216ZM0.967156 16.3232L0.716764 16.1786V14.6947L0.967156 14.8396V16.3232ZM0.619507 14.5345V16.2267L3.57648 17.9341V16.2419L0.619507 14.5345Z" fill="white"/>
<path d="M0.716797 16.1787L0.967189 16.3232V14.8396L0.716797 14.6947V16.1787Z" fill="#666666"/>
<path d="M2.09143 16.9723L2.34181 17.1169V15.6333L2.09143 15.4884V16.9723Z" fill="#666666"/>
<path d="M3.22888 17.629L3.47927 17.7739V16.2899L3.22888 16.145V17.629Z" fill="#666666"/>
<path d="M1.14258 16.4247L1.31094 16.5216V15.038L1.14258 14.9407V16.4247Z" fill="#666666"/>
<path d="M1.78625 16.7961L1.95461 16.8934V15.4094L1.78625 15.3122V16.7961Z" fill="#666666"/>
<path d="M2.58044 17.2548L2.77887 17.3693V15.8853L2.58044 15.7709V17.2548Z" fill="#666666"/>
<path d="M1.36487 16.5528L1.43362 16.5926V15.1087L1.36487 15.0688V16.5528Z" fill="#666666"/>
<path d="M1.47021 16.6138L1.53896 16.6536V15.1696L1.47021 15.1298V16.6138Z" fill="#666666"/>
<path d="M1.98865 16.913L2.05739 16.9529V15.4689L1.98865 15.429V16.913Z" fill="#666666"/>
<path d="M1.58289 16.6786L1.65163 16.7184V15.2345L1.58289 15.1946V16.6786Z" fill="#666666"/>
<path d="M2.83545 17.402L2.90459 17.4418V15.9579L2.83545 15.918V17.402Z" fill="#666666"/>
<path d="M2.95667 17.4719L3.02581 17.5118V16.0278L2.95667 15.988V17.4719Z" fill="#666666"/>
<path d="M1.70435 16.7489L1.73325 16.7657V15.2817L1.70435 15.2649V16.7489Z" fill="#666666"/>
<path d="M3.09827 17.5536L3.12717 17.5704V16.0865L3.09827 16.0697V17.5536Z" fill="#666666"/>
<path d="M2.50281 17.2099L2.5321 17.2267V15.7427L2.50281 15.7259V17.2099Z" fill="#666666"/>
<path d="M2.38123 17.1395L2.45036 17.1794V15.6958L2.38123 15.6559V17.1395Z" fill="#666666"/>
<path d="M12.0867 23.3307V33.5841L24.0716 40.5038V30.2501L12.0867 23.3307Z" fill="#B28B62"/>
<path d="M24.0715 30.2501V40.5038L34.8143 34.3012V24.0479L24.0715 30.2501Z" fill="#CDAC89"/>
<path d="M22.9618 17.0519L12.0867 23.3307L24.0716 30.2501L34.8143 24.0479L22.9618 17.0519Z" fill="#DAB996"/>
<path d="M15.5659 34.8259L15.3155 34.681V33.197L15.5659 33.3419V34.8259ZM15.2139 34.6224L15.185 34.6056V33.1216L15.2139 33.1384V34.6224ZM15.1124 34.5638L15.0432 34.5239V33.04L15.1124 33.0798V34.5638ZM14.9913 34.4938L14.9221 34.454V32.97L14.9913 33.0099V34.4938ZM14.8655 34.4212L14.6671 34.3067V32.8228L14.8655 32.9372V34.4212ZM14.6186 34.2786L14.5893 34.2618V32.7779L14.6186 32.7947V34.2786ZM14.537 34.2314L14.4679 34.1915V32.7079L14.537 32.7478V34.2314ZM14.4284 34.1689L14.178 34.0243V32.5404L14.4284 32.6853V34.1689ZM14.144 34.0048L14.0753 33.9649V32.481L14.144 32.5208V34.0048ZM14.0413 33.9454L13.8729 33.8482V32.3642L14.0413 32.4615V33.9454ZM13.8198 33.8177L13.7909 33.8009V32.3169L13.8198 32.3337V33.8177ZM13.7382 33.7704L13.6694 33.7306V32.2466L13.7382 32.2865V33.7704ZM13.6257 33.7056L13.5569 33.6657V32.1818L13.6257 32.2216V33.7056ZM13.5202 33.6446L13.4515 33.6048V32.1208L13.5202 32.1607V33.6446ZM13.3976 33.5736L13.2292 33.4767V31.9927L13.3976 32.09V33.5736ZM13.0538 33.3751L12.8034 33.2306V31.7466L13.0538 31.8916V33.3751ZM12.7062 31.5865V33.2786L15.6631 34.986V33.2939L12.7062 31.5865Z" fill="white"/>
<path d="M12.8035 33.2306L13.0539 33.3751V31.8916L12.8035 31.7466V33.2306Z" fill="#666666"/>
<path d="M14.178 34.0243L14.4284 34.1688V32.6852L14.178 32.5403V34.0243Z" fill="#666666"/>
<path d="M15.3156 34.6809L15.5659 34.8258V33.3419L15.3156 33.197V34.6809Z" fill="#666666"/>
<path d="M13.2292 33.4766L13.3976 33.5735V32.0899L13.2292 31.9927V33.4766Z" fill="#666666"/>
<path d="M13.8729 33.8481L14.0413 33.9453V32.4614L13.8729 32.3641V33.8481Z" fill="#666666"/>
<path d="M14.667 34.3068L14.8654 34.4212V32.9373L14.667 32.8228V34.3068Z" fill="#666666"/>
<path d="M13.4515 33.6047L13.5203 33.6446V32.1606L13.4515 32.1208V33.6047Z" fill="#666666"/>
<path d="M13.5569 33.6657L13.6256 33.7055V32.2216L13.5569 32.1817V33.6657Z" fill="#666666"/>
<path d="M14.0753 33.9649L14.1441 34.0048V32.5208L14.0753 32.481V33.9649Z" fill="#666666"/>
<path d="M13.6694 33.7305L13.7382 33.7704V32.2864L13.6694 32.2466V33.7305Z" fill="#666666"/>
<path d="M14.9221 34.4539L14.9913 34.4938V33.0098L14.9221 32.97V34.4539Z" fill="#666666"/>
<path d="M15.0432 34.5239L15.1124 34.5637V33.0798L15.0432 33.0399V34.5239Z" fill="#666666"/>
<path d="M13.791 33.8008L13.8199 33.8176V32.3337L13.791 32.3169V33.8008Z" fill="#666666"/>
<path d="M15.1849 34.6056L15.2138 34.6224V33.1384L15.1849 33.1216V34.6056Z" fill="#666666"/>
<path d="M14.5894 34.2618L14.6187 34.2786V32.7946L14.5894 32.7778V34.2618Z" fill="#666666"/>
<path d="M14.4679 34.1914L14.537 34.2313V32.7477L14.4679 32.7079V34.1914Z" fill="#666666"/>
<path d="M12.0785 13.3838V23.6371L24.0634 30.5569V20.3032L12.0785 13.3838Z" fill="#B28B62"/>
<path d="M24.0635 20.3032V30.5569L34.8062 24.3542V14.1009L24.0635 20.3032Z" fill="#CDAC89"/>
<path d="M22.9537 7.10496L12.0785 13.3837L24.0634 20.3031L34.8062 14.1009L22.9537 7.10496Z" fill="#DAB996"/>
<path d="M15.5577 24.8789L15.3073 24.734V23.25L15.5577 23.395V24.8789ZM15.2058 24.6754L15.1769 24.6586V23.1746L15.2058 23.1914V24.6754ZM15.1042 24.6168L15.0351 24.577V23.093L15.1042 23.1329V24.6168ZM14.9831 24.5469L14.914 24.507V23.0231L14.9831 23.0629V24.5469ZM14.8573 24.4742L14.6589 24.3598V22.8758L14.8573 22.9903V24.4742ZM14.6105 24.3317L14.5812 24.3149V22.8309L14.6105 22.8477V24.3317ZM14.5288 24.2844L14.4597 24.2445V22.761L14.5288 22.8008V24.2844ZM14.4202 24.2219L14.1698 24.0774V22.5934L14.4202 22.7383V24.2219ZM14.1359 24.0578L14.0671 24.018V22.534L14.1359 22.5739V24.0578ZM14.0331 23.9985L13.8648 23.9012V22.4172L14.0331 22.5145V23.9985ZM13.8116 23.8707L13.7827 23.8539V22.37L13.8116 22.3868V23.8707ZM13.73 23.8235L13.6613 23.7836V22.2997L13.73 22.3395V23.8235ZM13.6175 23.7586L13.5488 23.7188V22.2348L13.6175 22.2747V23.7586ZM13.512 23.6977L13.4433 23.6578V22.1739L13.512 22.2137V23.6977ZM13.3894 23.6266L13.221 23.5297V22.0458L13.3894 22.143V23.6266ZM13.0456 23.4282L12.7953 23.2836V21.7997L13.0456 21.9446V23.4282ZM12.698 21.6395V23.3317L15.655 25.0391V23.3469L12.698 21.6395Z" fill="white"/>
<path d="M12.7953 23.2836L13.0457 23.4282V21.9446L12.7953 21.7997V23.2836Z" fill="#666666"/>
<path d="M14.1699 24.0773L14.4203 24.2218V22.7383L14.1699 22.5933V24.0773Z" fill="#666666"/>
<path d="M15.3074 24.734L15.5578 24.8789V23.3949L15.3074 23.25V24.734Z" fill="#666666"/>
<path d="M13.2211 23.5297L13.3894 23.6266V22.143L13.2211 22.0457V23.5297Z" fill="#666666"/>
<path d="M13.8647 23.9011L14.0331 23.9984V22.5144L13.8647 22.4172V23.9011Z" fill="#666666"/>
<path d="M14.6588 24.3598L14.8572 24.4743V22.9903L14.6588 22.8759V24.3598Z" fill="#666666"/>
<path d="M13.4434 23.6578L13.5121 23.6976V22.2136L13.4434 22.1738V23.6578Z" fill="#666666"/>
<path d="M13.5487 23.7187L13.6175 23.7586V22.2746L13.5487 22.2348V23.7187Z" fill="#666666"/>
<path d="M14.0671 24.018L14.1359 24.0578V22.5739L14.0671 22.534V24.018Z" fill="#666666"/>
<path d="M13.6613 23.7835L13.73 23.8234V22.3394L13.6613 22.2996V23.7835Z" fill="#666666"/>
<path d="M14.9139 24.507L14.9831 24.5468V23.0629L14.9139 23.023V24.507Z" fill="#666666"/>
<path d="M15.0352 24.5769L15.1043 24.6168V23.1328L15.0352 23.093V24.5769Z" fill="#666666"/>
<path d="M13.7828 23.8539L13.8117 23.8707V22.3867L13.7828 22.3699V23.8539Z" fill="#666666"/>
<path d="M15.1768 24.6586L15.2057 24.6754V23.1914L15.1768 23.1746V24.6586Z" fill="#666666"/>
<path d="M14.5813 24.3148L14.6106 24.3316V22.8477L14.5813 22.8309V24.3148Z" fill="#666666"/>
<path d="M14.4597 24.2445L14.5289 24.2843V22.8008L14.4597 22.7609V24.2445Z" fill="#666666"/>
</svg>
