<svg width="28" height="42" viewBox="0 0 28 42" fill="none" xmlns="http://www.w3.org/2000/svg">
<path d="M0.0100098 19.9826V32.6099L14.7698 41.1318V28.5041L0.0100098 19.9826Z" fill="#B28B62"/>
<path d="M14.7699 28.5041V41.1318L28 33.4931V20.8658L14.7699 28.5041Z" fill="#CDAC89"/>
<path d="M13.4032 12.25L0.0100098 19.9825L14.7698 28.504L27.9999 20.8657L13.4032 12.25Z" fill="#DAB996"/>
<path d="M4.2949 34.1392L3.98654 33.9607V32.1332L4.2949 32.3117V34.1392ZM3.86146 33.8886L3.82586 33.8679V32.0403L3.86146 32.061V33.8886ZM3.73639 33.8164L3.65124 33.7673V31.9398L3.73639 31.9889V33.8164ZM3.58726 33.7303L3.50211 33.6812V31.8537L3.58726 31.9028V33.7303ZM3.43235 33.6408L3.18798 33.4999V31.6723L3.43235 31.8133V33.6408ZM3.12833 33.4652L3.09225 33.4445V31.617L3.12833 31.6377V33.4652ZM3.02779 33.407L2.94264 33.358V31.5309L3.02779 31.58V33.407ZM2.89405 33.3301L2.58569 33.1521V31.3245L2.89405 31.503V33.3301ZM2.54384 33.128L2.45918 33.0789V31.2514L2.54384 31.3005V33.128ZM2.41732 33.0549L2.20999 32.9351V31.1076L2.41732 31.2273V33.0549ZM2.14457 32.8976L2.10897 32.8769V31.0494L2.14457 31.07V32.8976ZM2.04402 32.8394L1.95936 32.7903V30.9628L2.04402 31.0118V32.8394ZM1.90547 32.7595L1.82081 32.7104V30.8829L1.90547 30.932V32.7595ZM1.77559 32.6845L1.69092 32.6354V30.8079L1.77559 30.8569V32.6845ZM1.62454 32.5969L1.4172 32.4776V30.6501L1.62454 30.7699V32.5969ZM1.20121 32.3525L0.892847 32.1745V30.347L1.20121 30.5255V32.3525ZM0.773071 30.1498V32.2337L4.41468 34.3364V32.2525L0.773071 30.1498Z" fill="white"/>
<path d="M0.892822 32.1746L1.20119 32.3526V30.5255L0.892822 30.3471V32.1746Z" fill="#666666"/>
<path d="M2.58569 33.152L2.89405 33.33V31.503L2.58569 31.3245V33.152Z" fill="#666666"/>
<path d="M3.98657 33.9607L4.29493 34.1392V32.3116L3.98657 32.1331V33.9607Z" fill="#666666"/>
<path d="M1.41711 32.4776L1.62446 32.5969V30.7699L1.41711 30.6501V32.4776Z" fill="#666666"/>
<path d="M2.20984 32.935L2.41717 33.0548V31.2273L2.20984 31.1075V32.935Z" fill="#666666"/>
<path d="M3.18799 33.4999L3.43236 33.6409V31.8133L3.18799 31.6724V33.4999Z" fill="#666666"/>
<path d="M1.69092 32.6353L1.77558 32.6844V30.8568L1.69092 30.8078V32.6353Z" fill="#666666"/>
<path d="M1.8208 32.7104L1.90547 32.7595V30.9319L1.8208 30.8829V32.7104Z" fill="#666666"/>
<path d="M2.45923 33.079L2.54389 33.1281V31.3005L2.45923 31.2514V33.079Z" fill="#666666"/>
<path d="M1.95935 32.7902L2.04401 32.8393V31.0118L1.95935 30.9627V32.7902Z" fill="#666666"/>
<path d="M3.50208 33.6812L3.58723 33.7302V31.9027L3.50208 31.8536V33.6812Z" fill="#666666"/>
<path d="M3.65125 33.7673L3.7364 33.8164V31.9889L3.65125 31.9398V33.7673Z" fill="#666666"/>
<path d="M2.10901 32.8768L2.14461 32.8975V31.07L2.10901 31.0493V32.8768Z" fill="#666666"/>
<path d="M3.82556 33.8679L3.86116 33.8886V32.0611L3.82556 32.0404V33.8679Z" fill="#666666"/>
<path d="M3.09229 33.4445L3.12836 33.4652V31.6377L3.09229 31.617V33.4445Z" fill="#666666"/>
<path d="M2.94263 33.3578L3.02777 33.4069V31.5799L2.94263 31.5308V33.3578Z" fill="#666666"/>
<path d="M0 7.73253V20.3598L14.7598 28.8818V16.254L0 7.73253Z" fill="#B28B62"/>
<path d="M14.7599 16.254V28.8818L27.9899 21.2431V8.61577L14.7599 16.254Z" fill="#CDAC89"/>
<path d="M13.3931 -1.71661e-05L0 7.7325L14.7598 16.254L27.9899 8.61573L13.3931 -1.71661e-05Z" fill="#DAB996"/>
<path d="M4.28476 21.8892L3.97641 21.7107V19.8832L4.28476 20.0617V21.8892ZM3.85133 21.6386L3.81573 21.6179V19.7903L3.85133 19.811V21.6386ZM3.72626 21.5664L3.6411 21.5173V19.6898L3.72626 19.7389V21.5664ZM3.57713 21.4803L3.49198 21.4312V19.6037L3.57713 19.6528V21.4803ZM3.42222 21.3908L3.17785 21.2499V19.4223L3.42222 19.5633V21.3908ZM3.1182 21.2152L3.08212 21.1945V19.367L3.1182 19.3877V21.2152ZM3.01765 21.157L2.93251 21.108V19.2809L3.01765 19.33V21.157ZM2.88392 21.0801L2.57556 20.9021V19.0745L2.88392 19.253V21.0801ZM2.53371 20.878L2.44905 20.8289V19.0014L2.53371 19.0505V20.878ZM2.40719 20.8049L2.19986 20.6851V18.8576L2.40719 18.9773V20.8049ZM2.13443 20.6476L2.09883 20.6269V18.7994L2.13443 18.82V20.6476ZM2.03389 20.5894L1.94923 20.5403V18.7128L2.03389 18.7618V20.5894ZM1.89534 20.5095L1.81068 20.4604V18.6329L1.89534 18.682V20.5095ZM1.76546 20.4345L1.68079 20.3854V18.5579L1.76546 18.6069V20.4345ZM1.61441 20.3469L1.40707 20.2276V18.4001L1.61441 18.5199V20.3469ZM1.19108 20.1025L0.882715 19.9245V18.097L1.19108 18.2755V20.1025ZM0.762939 17.8998V19.9837L4.40455 22.0864V20.0025L0.762939 17.8998Z" fill="white"/>
<path d="M0.88269 19.9245L1.19106 20.1025V18.2755L0.88269 18.097V19.9245Z" fill="#666666"/>
<path d="M2.57568 20.902L2.88404 21.08V19.253L2.57568 19.0745V20.902Z" fill="#666666"/>
<path d="M3.97644 21.7106L4.2848 21.8891V20.0616L3.97644 19.8831V21.7106Z" fill="#666666"/>
<path d="M1.4071 20.2276L1.61445 20.3469V18.5199L1.4071 18.4001V20.2276Z" fill="#666666"/>
<path d="M2.19983 20.685L2.40716 20.8048V18.9773L2.19983 18.8575V20.685Z" fill="#666666"/>
<path d="M3.17786 21.2499L3.42223 21.3909V19.5633L3.17786 19.4224V21.2499Z" fill="#666666"/>
<path d="M1.68091 20.3853L1.76557 20.4343V18.6068L1.68091 18.5577V20.3853Z" fill="#666666"/>
<path d="M1.81067 20.4604L1.89533 20.5095V18.6819L1.81067 18.6329V20.4604Z" fill="#666666"/>
<path d="M2.4491 20.8289L2.53376 20.878V19.0504L2.4491 19.0014V20.8289Z" fill="#666666"/>
<path d="M1.94934 20.5402L2.03401 20.5893V18.7618L1.94934 18.7127V20.5402Z" fill="#666666"/>
<path d="M3.49207 21.4312L3.57722 21.4802V19.6527L3.49207 19.6036V21.4312Z" fill="#666666"/>
<path d="M3.64111 21.5173L3.72627 21.5664V19.7389L3.64111 19.6898V21.5173Z" fill="#666666"/>
<path d="M2.099 20.6268L2.1346 20.6475V18.82L2.099 18.7993V20.6268Z" fill="#666666"/>
<path d="M3.81555 21.6179L3.85115 21.6385V19.811L3.81555 19.7903V21.6179Z" fill="#666666"/>
<path d="M3.08215 21.1945L3.11823 21.2152V19.3877L3.08215 19.367V21.1945Z" fill="#666666"/>
<path d="M2.93262 21.1078L3.01776 21.1569V19.3299L2.93262 19.2808V21.1078Z" fill="#666666"/>
</svg>
