<svg width="32" height="33" viewBox="0 0 32 33" fill="none" xmlns="http://www.w3.org/2000/svg">
<path d="M0 8.83717V23.2683L16.8683 33.0077V18.576L0 8.83717Z" fill="#B28B62"/>
<path d="M16.8684 18.576V33.0077L31.9884 24.2777V9.84658L16.8684 18.576Z" fill="#CDAC89"/>
<path d="M15.3064 -2.28882e-05L0 8.83713L16.8683 18.5759L31.9884 9.84653L15.3064 -2.28882e-05Z" fill="#DAB996"/>
<path d="M4.89688 25.0162L4.54448 24.8122V22.7236L4.89688 22.9276V25.0162ZM4.40153 24.7297L4.36085 24.7061V22.6175L4.40153 22.6411V24.7297ZM4.25859 24.6473L4.16127 24.5912V22.5026L4.25859 22.5587V24.6473ZM4.08816 24.5489L3.99084 24.4928V22.4042L4.08816 22.4602V24.5489ZM3.91112 24.4466L3.63184 24.2855V22.1969L3.91112 22.358V24.4466ZM3.56367 24.2459L3.52243 24.2223V22.1337L3.56367 22.1573V24.2459ZM3.44876 24.1794L3.35145 24.1233V22.0353L3.44876 22.0913V24.1794ZM3.29592 24.0914L2.94351 23.888V21.7994L3.29592 22.0034V24.0914ZM2.89569 23.8605L2.79893 23.8045V21.7158L2.89569 21.7719V23.8605ZM2.75109 23.777L2.51414 23.6401V21.5515L2.75109 21.6883V23.777ZM2.43937 23.5972L2.39868 23.5735V21.4849L2.43937 21.5086V23.5972ZM2.32446 23.5307L2.2277 23.4746V21.386L2.32446 21.4421V23.5307ZM2.16612 23.4394L2.06936 23.3833V21.2947L2.16612 21.3508V23.4394ZM2.01768 23.3536L1.92092 23.2976V21.2089L2.01768 21.265V23.3536ZM1.84506 23.2536L1.60809 23.1172V21.0286L1.84506 21.1655V23.2536ZM1.36125 22.9743L1.00883 22.7709V20.6822L1.36125 20.8862V22.9743ZM0.871948 20.4568V22.8385L5.03378 25.2416V22.8599L0.871948 20.4568Z" fill="white"/>
<path d="M1.00891 22.7709L1.36133 22.9743V20.8862L1.00891 20.6823V22.7709Z" fill="#666666"/>
<path d="M2.9436 23.888L3.29601 24.0914V22.0033L2.9436 21.7993V23.888Z" fill="#666666"/>
<path d="M4.54456 24.8121L4.89696 25.0161V22.9275L4.54456 22.7235V24.8121Z" fill="#666666"/>
<path d="M1.60815 23.1172L1.84512 23.2535V21.1655L1.60815 21.0286V23.1172Z" fill="#666666"/>
<path d="M2.51416 23.64L2.75111 23.7769V21.6882L2.51416 21.5514V23.64Z" fill="#666666"/>
<path d="M3.63184 24.2856L3.91112 24.4467V22.358L3.63184 22.1969V24.2856Z" fill="#666666"/>
<path d="M1.92102 23.2974L2.01778 23.3535V21.2649L1.92102 21.2088V23.2974Z" fill="#666666"/>
<path d="M2.06934 23.3833L2.1661 23.4393V21.3507L2.06934 21.2946V23.3833Z" fill="#666666"/>
<path d="M2.79895 23.8045L2.89571 23.8605V21.7719L2.79895 21.7158V23.8045Z" fill="#666666"/>
<path d="M2.22778 23.4745L2.32454 23.5306V21.442L2.22778 21.3859V23.4745Z" fill="#666666"/>
<path d="M3.99084 24.4927L4.08816 24.5488V22.4602L3.99084 22.4041V24.4927Z" fill="#666666"/>
<path d="M4.16138 24.5911L4.25869 24.6472V22.5586L4.16138 22.5025V24.5911Z" fill="#666666"/>
<path d="M2.3988 23.5735L2.43949 23.5971V21.5085L2.3988 21.4848V23.5735Z" fill="#666666"/>
<path d="M4.36072 24.7061L4.4014 24.7297V22.6411L4.36072 22.6175V24.7061Z" fill="#666666"/>
<path d="M3.52258 24.2223L3.56382 24.2459V22.1573L3.52258 22.1337V24.2223Z" fill="#666666"/>
<path d="M3.35156 24.1232L3.44887 24.1793V22.0913L3.35156 22.0352V24.1232Z" fill="#666666"/>
</svg>
